<?xml version="1.0" encoding="UTF-8" standalone="no"?>
<!-- Created with Inkscape (http://www.inkscape.org/) -->

<svg
   xmlns:dc="http://purl.org/dc/elements/1.1/"
   xmlns:cc="http://creativecommons.org/ns#"
   xmlns:rdf="http://www.w3.org/1999/02/22-rdf-syntax-ns#"
   xmlns:svg="http://www.w3.org/2000/svg"
   xmlns="http://www.w3.org/2000/svg"
   xmlns:xlink="http://www.w3.org/1999/xlink"
   xmlns:sodipodi="http://sodipodi.sourceforge.net/DTD/sodipodi-0.dtd"
   xmlns:inkscape="http://www.inkscape.org/namespaces/inkscape"
   id="svg2"
   version="1.1"
   inkscape:version="0.48.5 r10040"
   sodipodi:docname="logo.svg"
   width="1000"
   height="1000">
  <defs
     id="defs4">
    <linearGradient
       id="linearGradient3003">
      <stop
         style="stop-color:#aaaaaa;stop-opacity:0.627451;"
         offset="0"
         id="stop3005" />
      <stop
         style="stop-color:#f9f9f9;stop-opacity:0;"
         offset="1"
         id="stop3007" />
    </linearGradient>
    <linearGradient
       id="linearGradient3073">
      <stop
         style="stop-color:#008b8b;stop-opacity:1;"
         offset="0"
         id="stop3075" />
      <stop
         style="stop-color:#ff8c00;stop-opacity:0"
         offset="1"
         id="stop3077" />
    </linearGradient>
    <linearGradient
       id="linearGradient2995">
      <stop
         style="stop-color:#008b8b;stop-opacity:0.42857143;"
         offset="0"
         id="stop2997" />
      <stop
         style="stop-color:#ff8c00;stop-opacity:1;"
         offset="1"
         id="stop2999" />
    </linearGradient>
    <linearGradient
       inkscape:collect="always"
       xlink:href="#linearGradient2995"
       id="linearGradient3023"
       x1="521.52283"
       y1="199.73259"
       x2="456.91055"
       y2="1003.963"
       gradientUnits="userSpaceOnUse" />
    <radialGradient
       inkscape:collect="always"
       xlink:href="#linearGradient3073"
       id="radialGradient3065"
       cx="501.31229"
       cy="311.02734"
       fx="501.31229"
       fy="311.02734"
       r="464.28571"
       gradientUnits="userSpaceOnUse"
       gradientTransform="matrix(-0.10557025,1.5217992,-2.8429473,-0.19781584,1437.158,8.7717963)" />
  </defs>
  <sodipodi:namedview
     id="base"
     pagecolor="#ffffff"
     bordercolor="#666666"
     borderopacity="1.0"
     inkscape:pageopacity="0.0"
     inkscape:pageshadow="2"
     inkscape:zoom="0.35"
     inkscape:cx="379.53622"
     inkscape:cy="360.99047"
     inkscape:document-units="px"
     inkscape:current-layer="layer1"
     showgrid="false"
     showguides="true"
     inkscape:guide-bbox="true"
     inkscape:window-width="1259"
     inkscape:window-height="885"
     inkscape:window-x="24"
     inkscape:window-y="67"
     inkscape:window-maximized="0">
    <sodipodi:guide
       orientation="1,0"
       position="500,500"
       id="guide2989" />
    <sodipodi:guide
       orientation="0,1"
       position="500,500"
       id="guide2991" />
  </sodipodi:namedview>
  <metadata
     id="metadata7">
    <rdf:RDF>
      <cc:Work
         rdf:about="">
        <dc:format>image/svg+xml</dc:format>
        <dc:type
           rdf:resource="http://purl.org/dc/dcmitype/StillImage" />
        <dc:title />
      </cc:Work>
    </rdf:RDF>
  </metadata>
  <g
     inkscape:label="Layer 1"
     inkscape:groupmode="layer"
     id="layer1"
     transform="translate(0,-52.362183)">
    <path
       sodipodi:type="arc"
       style="fill:#f9f9f9;stroke:url(#radialGradient3065);stroke-width:32;stroke-linecap:round;stroke-miterlimit:4;stroke-opacity:1;stroke-dasharray:none;stroke-dashoffset:0;fill-opacity:0"
       id="path2993"
       sodipodi:cx="500"
       sodipodi:cy="500"
       sodipodi:rx="464.28571"
       sodipodi:ry="464.28571"
       d="M 964.28571,500 C 964.28571,756.41791 756.41791,964.28571 500,964.28571 243.58209,964.28571 35.714294,756.41791 35.714294,500 35.714294,243.58209 243.58209,35.714294 500,35.714294 756.41791,35.714294 964.28571,243.58209 964.28571,500 z"
       transform="translate(0,52.362183)" />
    <g
       transform="matrix(0.99387096,-0.11054642,0.11054642,0.99387096,0,0)"
       style="font-size:51.57178497px;font-style:normal;font-variant:normal;font-weight:normal;font-stretch:normal;line-height:125%;letter-spacing:0px;word-spacing:0px;fill:url(#linearGradient3023);fill-opacity:1;stroke:none;font-family:Microsoft JhengHei;-inkscape-font-specification:Microsoft JhengHei"
       id="text2985">
      <path
         d="m 749.84393,548.14638 -40.79409,0 0,-140.89069 -527.67908,0 0,140.89069 -41.17181,0 0,-181.30705 292.35763,0 c -6.79939,-16.36743 -19.89377,-37.26808 -39.2832,-62.70203 l 37.01686,-19.26387 c 17.8785,24.67852 34.12057,52.00046 48.72627,81.9659 l 270.82742,0 z m 31.72873,194.14965 -314.64329,0 0,166.19813 c -4.1e-4,19.89341 -6.5476,34.43574 -19.64159,43.62701 -13.09478,9.19123 -44.69758,13.78685 -94.80849,13.78689 -13.59831,-4e-5 -27.82586,-0.37776 -42.6827,-1.13316 l -14.7312,-43.81588 c 20.90042,2.01453 41.80107,3.02179 62.70203,3.02179 32.73566,0 51.99951,-1.69975 57.79162,-5.09926 5.79139,-3.3995 8.68726,-8.62466 8.68763,-15.67551 l 0,-160.91001 -315.77646,0 0,-41.17182 315.77646,0 0,-50.23716 C 492.4882,610.59691 545.873,576.09824 584.40124,547.39094 l -351.28243,0 0,-40.41637 417.76168,0 0,40.41637 c -49.10454,39.28353 -110.42152,80.70712 -183.95112,124.27088 l 0,29.46239 314.64329,0 z"
         style="font-size:773.57678223px;font-family:Microsoft JhengHei;-inkscape-font-specification:Microsoft JhengHei"
         id="path3080" />
    </g>
  </g>
</svg>
